<mxfile host="app.diagrams.net" modified="2025-09-18T00:00:00.000Z" agent="Mozilla/5.0" version="22.0.8" editor="draw.io">
  <diagram id="git-workflow" name="Git Workflow">
    <mxGraphModel dx="1200" dy="800" grid="1" gridSize="10" guides="1" tooltips="1" connect="1" arrows="1" fold="1" page="1" pageScale="1" pageWidth="1920" pageHeight="1080" math="0" shadow="0">
      <root>
        <mxCell id="0"/>
        <mxCell id="1" parent="0"/>
        <mxCell id="layer" value="" style="layer" parent="0"/>

        <!-- 1. Планування / ініціалізація -->
        <mxCell id="n1" value="1) Планування &amp; ініціалізація репозиторію&#xa;<code>git init</code> або <code>git clone</code>" style="rounded=1;whiteSpace=wrap;html=1;fillColor=#e1f5fe;strokeColor=#0288D1;fontSize=14;" vertex="1" parent="1">
          <mxGeometry x="120" y="120" width="240" height="80" as="geometry"/>
        </mxCell>

        <!-- 2. Створення гілки -->
        <mxCell id="n2" value="2) Створення гілки (branch)&#xa;<code>git switch -c feature/...</code>" style="rounded=1;whiteSpace=wrap;html=1;fillColor=#E8F5E9;strokeColor=#2E7D32;fontSize=14;" vertex="1" parent="1">
          <mxGeometry x="420" y="120" width="240" height="80" as="geometry"/>
        </mxCell>

        <!-- 3. Розробка -->
        <mxCell id="n3" value="3) Розробка (зміни у коді)" style="rounded=1;whiteSpace=wrap;html=1;fillColor=#FFF8E1;strokeColor=#F9A825;fontSize=14;" vertex="1" parent="1">
          <mxGeometry x="720" y="120" width="220" height="80" as="geometry"/>
        </mxCell>

        <!-- 4. Коміти -->
        <mxCell id="n4" value="4) Додавання і коміт&#xa;<code>git add .</code> → <code>git commit -m &quot;...&quot;</code>" style="rounded=1;whiteSpace=wrap;html=1;fillColor=#F3E5F5;strokeColor=#6A1B9A;fontSize=14;" vertex="1" parent="1">
          <mxGeometry x="990" y="120" width="260" height="80" as="geometry"/>
        </mxCell>

        <!-- 5. Push -->
        <mxCell id="n5" value="5) Відправка змін&#xa;<code>git push origin feature/...</code>" style="rounded=1;whiteSpace=wrap;html=1;fillColor=#FBE9E7;strokeColor=#D84315;fontSize=14;" vertex="1" parent="1">
          <mxGeometry x="1290" y="120" width="240" height="80" as="geometry"/>
        </mxCell>

        <!-- 6. PR / Code Review -->
        <mxCell id="n6" value="6) Pull Request / Code Review" style="shape=process;rounded=1;whiteSpace=wrap;html=1;fillColor=#E0F2F1;strokeColor=#00695C;fontSize=14;" vertex="1" parent="1">
          <mxGeometry x="1590" y="120" width="240" height="80" as="geometry"/>
        </mxCell>

        <!-- 7. Merge to main -->
        <mxCell id="n7" value="7) Злиття в main&#xa;(merge / fast-forward)" style="rounded=1;whiteSpace=wrap;html=1;fillColor=#F1F8E9;strokeColor=#558B2F;fontSize=14;" vertex="1" parent="1">
          <mxGeometry x="340" y="280" width="240" height="80" as="geometry"/>
        </mxCell>

        <!-- 8. Тести / CI -->
        <mxCell id="n8" value="8) Тестування / CI&#xa;(build, tests, lint)" style="rounded=1;whiteSpace=wrap;html=1;fillColor=#EDE7F6;strokeColor=#4527A0;fontSize=14;" vertex="1" parent="1">
          <mxGeometry x="640" y="280" width="240" height="80" as="geometry"/>
        </mxCell>

        <!-- 9. Реліз / Тег -->
        <mxCell id="n9" value="9) Реліз &amp; тегування&#xa;<code>git tag v1.0</code> → <code>git push --tags</code>" style="rounded=1;whiteSpace=wrap;html=1;fillColor=#FFF3E0;strokeColor=#EF6C00;fontSize=14;" vertex="1" parent="1">
          <mxGeometry x="940" y="280" width="260" height="80" as="geometry"/>
        </mxCell>

        <!-- 10. Ітерація -->
        <mxCell id="n10" value="10) Наступна фіча → нова гілка" style="rounded=1;whiteSpace=wrap;html=1;fillColor=#E3F2FD;strokeColor=#1565C0;fontSize=14;" vertex="1" parent="1">
          <mxGeometry x="1240" y="280" width="240" height="80" as="geometry"/>
        </mxCell>

        <!-- Edges top row -->
        <mxCell id="e1" edge="1" parent="1" source="n1" target="n2" style="endArrow=block;strokeColor=#0288D1;">
          <mxGeometry relative="1" as="geometry"/>
        </mxCell>
        <mxCell id="e2" edge="1" parent="1" source="n2" target="n3" style="endArrow=block;strokeColor=#2E7D32;">
          <mxGeometry relative="1" as="geometry"/>
        </mxCell>
        <mxCell id="e3" edge="1" parent="1" source="n3" target="n4" style="endArrow=block;strokeColor=#F9A825;">
          <mxGeometry relative="1" as="geometry"/>
        </mxCell>
        <mxCell id="e4" edge="1" parent="1" source="n4" target="n5" style="endArrow=block;strokeColor=#6A1B9A;">
          <mxGeometry relative="1" as="geometry"/>
        </mxCell>
        <mxCell id="e5" edge="1" parent="1" source="n5" target="n6" style="endArrow=block;strokeColor=#D84315;">
          <mxGeometry relative="1" as="geometry"/>
        </mxCell>

        <!-- Edges bottom row -->
        <mxCell id="e6" edge="1" parent="1" source="n6" target="n7" style="endArrow=block;strokeColor=#00695C;">
          <mxGeometry relative="1" as="geometry">
            <mxPoint x="1710" y="220" as="targetPoint"/>
          </mxGeometry>
        </mxCell>
        <mxCell id="e7" edge="1" parent="1" source="n7" target="n8" style="endArrow=block;strokeColor=#558B2F;">
          <mxGeometry relative="1" as="geometry"/>
        </mxCell>
        <mxCell id="e8" edge="1" parent="1" source="n8" target="n9" style="endArrow=block;strokeColor=#4527A0;">
          <mxGeometry relative="1" as="geometry"/>
        </mxCell>
        <mxCell id="e9" edge="1" parent="1" source="n9" target="n10" style="endArrow=block;strokeColor=#EF6C00;">
          <mxGeometry relative="1" as="geometry"/>
        </mxCell>

        <!-- Feedback loop: з релізу назад до створення гілки -->
        <mxCell id="e10" edge="1" parent="1" source="n10" target="n2" style="endArrow=block;dashed=1;dashPattern=8 4;strokeColor=#1565C0;">
          <mxGeometry relative="1" as="geometry">
            <mxPoint x="1360" y="380" as="sourcePoint"/>
            <mxPoint x="540" y="220" as="targetPoint"/>
          </mxGeometry>
        </mxCell>

        <!-- Декоративні ярлики -->
        <mxCell id="lbl1" value="Локальний репозиторій" style="text;html=1;strokeColor=none;fillColor=none;align=center;verticalAlign=top;fontSize=12;fontColor=#455A64;" vertex="1" parent="1">
          <mxGeometry x="720" y="90" width="220" height="30" as="geometry"/>
        </mxCell>
        <mxCell id="lbl2" value="Віддалений репозиторій (GitHub/GitLab)" style="text;html=1;strokeColor=none;fillColor=none;align=center;verticalAlign=top;fontSize=12;fontColor=#455A64;" vertex="1" parent="1">
          <mxGeometry x="1560" y="90" width="300" height="30" as="geometry"/>
        </mxCell>

      </root>
    </mxGraphModel>
  </diagram>
</mxfile>
